# Blender v2.79 (sub 0) OBJ File: 'forge_marker_switch.blend'
# www.blender.org
mtllib marker_switch.mtl
o Cube.000_Cube.015
v 0.626261 0.482950 0.714649
v 0.626261 0.545450 0.714649
v 0.582067 0.482950 0.670455
v 0.582067 0.545450 0.670455
v 0.714649 0.482950 0.626261
v 0.714649 0.545450 0.626261
v 0.670455 0.482950 0.582067
v 0.670455 0.545450 0.582067
v 0.582067 0.482950 0.758843
v 0.582067 0.545450 0.758843
v 0.537872 0.482950 0.714649
v 0.537872 0.545450 0.714649
v 0.537872 0.482950 0.803038
v 0.537872 0.545450 0.803038
v 0.493678 0.482950 0.758843
v 0.493678 0.545450 0.758843
v 0.803038 0.482950 0.537872
v 0.803038 0.545450 0.537872
v 0.758843 0.482950 0.493678
v 0.758843 0.545450 0.493678
v 0.758843 0.482950 0.582067
v 0.758843 0.545450 0.582067
v 0.714649 0.482950 0.537872
v 0.714649 0.545450 0.537872
vt 0.187500 0.125000
vt 0.250000 0.062500
vt 0.250000 0.125000
vt 0.562500 0.062500
vt 0.437500 0.000000
vt 0.562500 0.000000
vt 0.750000 0.000000
vt 0.687500 0.062500
vt 0.687500 0.000000
vt 0.085228 1.022724
vt -0.914772 0.522724
vt 0.085228 0.522724
vt 0.312500 0.062500
vt 0.187500 0.000000
vt 0.312500 0.000000
vt 0.250000 0.062500
vt 0.187500 0.125000
vt 0.250000 0.125000
vt 0.187500 0.062500
vt 0.250000 0.000000
vt 0.250000 0.062500
vt 0.437500 0.000000
vt 0.500000 0.062500
vt 0.500000 0.000000
vt 0.750000 0.062500
vt 0.687500 0.000000
vt 0.687500 0.062500
vt 0.085228 0.022724
vt 0.585228 -0.477276
vt 0.585228 0.022724
vt 0.437500 0.062500
vt 0.500000 0.000000
vt 0.437500 0.000000
vt 0.687500 0.062500
vt 0.750000 0.000000
vt 0.750000 0.062500
vt 0.187500 0.125000
vt 0.250000 0.062500
vt 0.187500 0.062500
vt 0.187500 0.062500
vt 0.250000 0.000000
vt 0.187500 0.000000
vt -0.414772 0.022724
vt 0.085227 -0.477276
vt 0.085227 0.022724
vt 0.187500 0.062500
vt 0.437500 0.062500
vt 0.750000 0.062500
vt -0.914772 1.022724
vt 0.187500 0.062500
vt 0.187500 0.062500
vt 0.187500 0.000000
vt 0.437500 0.062500
vt 0.750000 0.000000
vt 0.085228 -0.477276
vt 0.500000 0.062500
vt 0.687500 0.000000
vt 0.250000 0.125000
vt 0.250000 0.062500
vt -0.414772 -0.477276
vn -0.7071 0.0000 0.7071
vn -0.7071 0.0000 -0.7071
vn 0.7071 0.0000 -0.7071
vn 0.7071 0.0000 0.7071
vn 0.0000 1.0000 0.0000
usemtl Metal
s off
f 2/1/1 3/2/1 1/3/1
f 3/4/2 8/5/2 7/6/2
f 8/7/3 5/8/3 7/9/3
f 6/10/4 1/11/4 5/12/4
f 4/13/5 6/14/5 8/15/5
f 11/16/3 10/17/3 9/18/3
f 14/19/1 15/20/1 13/21/1
f 16/22/5 10/23/5 12/24/5
f 15/25/2 12/26/2 11/27/2
f 14/28/4 9/29/4 10/30/4
f 19/31/3 18/32/3 17/33/3
f 22/34/1 23/35/1 21/36/1
f 24/37/5 18/38/5 20/39/5
f 23/40/2 20/41/2 19/42/2
f 22/43/4 17/44/4 18/45/4
f 2/1/1 4/46/1 3/2/1
f 3/4/2 4/47/2 8/5/2
f 8/7/3 6/48/3 5/8/3
f 6/10/4 2/49/4 1/11/4
f 4/13/5 2/50/5 6/14/5
f 11/16/3 12/51/3 10/17/3
f 14/19/1 16/52/1 15/20/1
f 16/22/5 14/53/5 10/23/5
f 15/25/2 16/54/2 12/26/2
f 14/28/4 13/55/4 9/29/4
f 19/31/3 20/56/3 18/32/3
f 22/34/1 24/57/1 23/35/1
f 24/37/5 22/58/5 18/38/5
f 23/40/2 24/59/2 20/41/2
f 22/43/4 21/60/4 17/44/4
o podium.000_Cube.014
v 0.875000 0.750000 0.875000
v 0.125000 0.375000 0.875000
v 0.875000 0.375000 0.125000
v 0.875000 0.375000 0.875000
v 0.875000 0.187498 0.125000
v 0.125000 0.187500 0.875000
v 0.875000 0.187500 0.875000
v 0.500000 0.375000 0.500000
v 0.750000 0.187498 0.250000
v 0.250000 0.187500 0.750000
v 0.250000 0.375000 0.750000
v 0.750000 0.375000 0.250000
v 0.875000 0.187499 0.375000
v 0.375000 0.187500 0.875000
v 0.125000 0.000000 0.875000
v 0.375000 0.000000 0.875000
v 0.250000 0.000000 0.750000
v 0.875000 0.000000 0.375000
v 0.875000 0.000000 0.125000
v 0.750000 0.000000 0.250000
v 0.875000 0.000000 0.875000
vt 0.531250 1.000000
vt 0.875000 0.812500
vt 0.187500 0.812500
vt 0.187500 1.000000
vt 0.000000 0.812500
vt 0.000000 1.000000
vt 0.874950 0.187525
vt 0.187550 -0.000000
vt 0.874950 0.000000
vt 0.187546 0.627476
vt 0.375000 0.812500
vt 0.187546 0.812454
vt 0.187500 1.000000
vt 0.000000 0.812500
vt 0.000000 1.000000
vt 0.875000 0.627511
vt 0.187500 0.812500
vt 0.187500 0.627512
vt 0.000000 0.627511
vt 0.187500 0.627512
vt 0.375000 0.000000
vt 0.187500 0.687500
vt 0.687500 0.000000
vt 0.500000 0.000000
vt 0.687500 0.000000
vt 0.000000 0.812500
vt 0.187500 0.627513
vt 0.187500 0.812500
vt 0.687547 0.812453
vt 0.875000 0.627477
vt 0.875000 0.812454
vt 0.875000 1.000000
vt 0.187550 0.187525
vt 0.375000 0.627512
vt 0.187500 0.812500
vt 0.875000 0.812500
vt 0.187500 0.000000
vt 0.000000 0.627513
vt 0.687547 0.627476
vt 0.000000 0.187500
vt 0.250000 0.000000
vt 0.750000 0.187500
vt 0.000000 0.187500
vt 0.000000 0.000000
vt 0.500000 0.000000
vt 0.750000 0.187500
vt 0.000000 0.625000
vt 0.750000 0.625000
vt 0.000000 1.000000
vt 0.500000 0.815012
vt 0.000000 0.815012
vt 0.500000 1.000000
vt 0.750000 0.815012
vt 0.500000 0.815013
vt 0.250000 0.815011
vt 0.750000 1.000000
vt 0.250000 1.000000
vt 0.000000 1.000000
vt 0.000000 0.000000
vt 0.750000 0.000000
vt 0.750000 0.000000
vt 0.500000 1.000000
vt 0.750000 1.000000
vt 0.750000 0.815012
vt 0.000000 0.815011
vn -0.7071 0.0000 -0.7071
vn 0.0000 -1.0000 0.0000
vn 0.7071 0.0000 -0.7071
vn -0.4082 0.8165 -0.4082
vn -0.7071 0.0000 0.7071
vn -0.0000 -0.0000 1.0000
vn 1.0000 0.0000 0.0000
usemtl Metal
s off
f 32/61/6 33/62/6 34/63/6
f 35/64/6 30/65/6 26/66/6
f 34/67/7 37/68/7 38/69/7
f 40/70/8 34/71/8 38/72/8
f 27/73/6 33/74/6 36/75/6
f 40/76/6 37/77/6 42/78/6
f 39/79/6 34/63/6 41/80/6
f 36/81/9 25/82/9 27/83/9
f 25/82/9 35/84/9 26/85/9
f 29/86/6 44/87/6 33/88/6
f 33/89/10 42/90/10 37/91/10
f 34/63/6 35/64/6 32/61/6
f 32/61/6 36/92/6 33/62/6
f 35/64/6 34/63/6 30/65/6
f 34/67/7 33/93/7 37/68/7
f 40/70/8 41/94/8 34/71/8
f 27/73/6 29/95/6 33/74/6
f 40/76/6 38/96/6 37/77/6
f 39/79/6 30/65/6 34/63/6
f 36/81/9 32/97/9 25/82/9
f 25/82/9 32/97/9 35/84/9
f 29/86/6 43/98/6 44/87/6
f 33/89/10 44/99/10 42/90/10
usemtl Spruce_Wood
f 26/100/11 38/101/11 28/102/11
f 28/103/12 31/104/12 37/105/12
f 28/103/12 27/106/12 25/107/12
f 28/102/11 25/108/11 26/100/11
f 37/109/12 45/110/12 42/111/12
f 29/112/12 42/113/12 43/114/12
f 40/115/11 31/116/11 38/117/11
f 30/118/11 40/115/11 38/117/11
f 30/119/11 38/101/11 26/100/11
f 38/101/11 31/120/11 28/102/11
f 29/121/12 27/106/12 37/105/12
f 27/106/12 28/103/12 37/105/12
f 37/109/12 31/122/12 45/110/12
f 29/112/12 37/123/12 42/113/12
f 40/115/11 45/124/11 31/116/11
f 30/118/11 39/125/11 40/115/11
