# Blender v2.79 (sub 0) OBJ File: 'forge_marker_switch.blend'
# www.blender.org
mtllib marker_switch.mtl
o Cube.002_Cube.005
v 0.449484 0.545450 0.626261
v 0.405290 0.545450 0.582067
v 0.449484 0.482950 0.626261
v 0.405290 0.482950 0.582067
v 0.626261 0.545450 0.449484
v 0.582067 0.545450 0.405290
v 0.626261 0.482950 0.449484
v 0.582067 0.482950 0.405290
v 0.582067 0.482950 0.493678
v 0.537873 0.482950 0.537873
v 0.493678 0.482950 0.582067
v 0.493678 0.545450 0.582067
v 0.537873 0.545450 0.537873
v 0.582067 0.545450 0.493678
v 0.714649 0.545450 0.626261
v 0.714649 0.482950 0.626261
v 0.758843 0.482950 0.582067
v 0.758843 0.545450 0.582067
v 0.582067 0.545450 0.758843
v 0.582067 0.482950 0.758843
v 0.626261 0.482950 0.714649
v 0.626261 0.545450 0.714649
v 0.626261 0.482950 0.537873
v 0.670455 0.482950 0.582067
v 0.626261 0.545450 0.537873
v 0.670455 0.545450 0.582067
v 0.537873 0.482950 0.626261
v 0.582067 0.482950 0.670455
v 0.537873 0.545450 0.626261
v 0.582067 0.545450 0.670455
vt 0.875000 0.937500
vt 0.937500 0.875000
vt 0.937500 0.937500
vt 0.875000 0.875000
vt 0.875000 0.812500
vt 0.937500 0.750000
vt 0.875000 0.937500
vt 0.937500 0.875000
vt 0.937500 0.937500
vt 0.937500 0.875000
vt 0.937500 0.937500
vt 0.875000 1.000000
vt 0.000000 0.000000
vt 0.000000 0.000000
vt 0.000000 0.000000
vt 0.937500 1.000000
vt 0.875000 0.750000
vt 0.937500 0.750000
vt 0.250000 0.000000
vt 0.312500 0.000000
vt 0.375000 0.062500
vt 0.187500 0.062500
vt 0.375000 0.125000
vt 0.187500 0.125000
vt 0.750000 0.062500
vt 0.687500 0.062500
vt 0.687500 0.000000
vt 0.812500 0.000000
vt 0.875000 0.000000
vt 0.875000 0.062500
vt 0.375000 0.125000
vt 0.187500 0.062500
vt 0.375000 0.062500
vt 0.250000 0.000000
vt 0.312500 0.000000
vt 0.500000 0.000000
vt 0.562500 0.000000
vt 0.500000 0.062500
vt 0.500000 0.000000
vt 0.562500 0.000000
vt 0.562500 0.062500
vt 0.875000 0.875000
vt 0.875000 0.750000
vt 0.937500 1.000000
vt 0.875000 1.000000
vt 0.875000 0.937500
vt 0.875000 0.875000
vt 0.937500 1.000000
vt 0.875000 0.750000
vt 0.937500 0.750000
vt 0.937500 0.812500
vt 0.000000 0.000000
vt 0.000000 0.000000
vt 0.000000 0.000000
vt 0.875000 1.000000
vt 0.375000 0.000000
vt 0.187500 0.062500
vt 0.187500 0.000000
vt 0.375000 0.062500
vt 0.875000 0.000000
vt 0.812500 0.062500
vt 0.875000 0.062500
vt 0.687500 0.062500
vt 0.750000 0.000000
vt 0.687500 0.000000
vt 0.187500 0.125000
vt 0.375000 0.000000
vt 0.187500 0.000000
vt 0.625000 0.000000
vt 0.625000 0.062500
vt 0.562500 0.062500
vt 0.437500 0.062500
vt 0.437500 0.000000
vt 0.625000 0.000000
vt 0.625000 0.062500
vt 0.500000 0.062500
vt 0.437500 0.062500
vt 0.437500 0.000000
vn -0.7071 0.0000 0.7071
vn -0.0000 -1.0000 0.0000
vn 0.7071 0.0000 -0.7071
vn 0.0000 1.0000 0.0000
vn 0.7071 0.0000 0.7071
vn -0.7071 0.0000 -0.7071
usemtl Metal
s off
f 2/1/1 3/2/1 1/3/1
f 10/4/2 11/5/2 4/6/2
f 8/7/3 5/8/3 7/9/3
f 13/10/4 14/11/4 6/12/4
f 13/13/5 11/14/5 10/15/5
f 4/16/6 6/17/6 8/18/6
f 24/19/2 23/20/2 7/21/2
f 5/22/3 17/23/3 7/24/3
f 26/25/4 15/26/4 18/27/4
f 28/28/2 21/29/2 20/30/2
f 3/31/1 19/32/1 1/33/1
f 30/34/4 29/35/4 1/33/4
f 26/36/1 25/37/1 24/38/1
f 28/39/3 27/40/3 29/41/3
f 2/1/1 4/42/1 3/2/1
f 11/5/2 3/43/2 4/6/2
f 4/6/2 8/44/2 10/4/2
f 8/44/2 7/45/2 9/46/2
f 9/46/2 10/4/2 8/44/2
f 8/7/3 6/47/3 5/8/3
f 14/11/4 5/48/4 6/12/4
f 6/12/4 2/49/4 13/10/4
f 2/49/4 1/50/4 12/51/4
f 12/51/4 13/10/4 2/49/4
f 10/15/5 9/52/5 14/53/5
f 13/13/5 12/54/5 11/14/5
f 10/15/5 14/53/5 13/13/5
f 4/16/6 2/55/6 6/17/6
f 23/20/2 9/56/2 7/21/2
f 7/21/2 17/57/2 24/19/2
f 17/57/2 16/58/2 24/19/2
f 5/22/3 18/59/3 17/23/3
f 18/27/4 5/60/4 25/61/4
f 5/60/4 14/62/4 25/61/4
f 25/61/4 26/25/4 18/27/4
f 20/30/2 3/63/2 27/64/2
f 3/63/2 11/65/2 27/64/2
f 27/64/2 28/28/2 20/30/2
f 3/31/1 20/66/1 19/32/1
f 29/35/4 12/67/4 1/33/4
f 1/33/4 19/32/4 30/34/4
f 19/32/4 22/68/4 30/34/4
f 14/69/1 9/70/1 23/71/1
f 24/38/1 16/72/1 15/73/1
f 14/69/1 23/71/1 25/37/1
f 23/71/1 24/38/1 25/37/1
f 15/73/1 26/36/1 24/38/1
f 27/40/3 11/74/3 12/75/3
f 29/41/3 30/76/3 28/39/3
f 30/76/3 22/77/3 28/39/3
f 27/40/3 12/75/3 29/41/3
f 22/77/3 21/78/3 28/39/3
