# Blender v2.79 (sub 0) OBJ File: 'forge_marker_switch.blend'
# www.blender.org
mtllib marker_switch.mtl
o podium.001_Cube.000
v 0.750000 0.187498 0.250000
v 0.250000 0.187499 0.750000
v 0.708333 0.187498 0.291667
v 0.291667 0.187499 0.708333
v 0.750000 0.128675 0.250000
v 0.250000 0.128676 0.750000
v 0.708333 0.128675 0.291667
v 0.291667 0.128675 0.708333
v 0.335861 0.128675 0.752527
v 0.752527 0.136604 0.335861
v 0.750000 0.187498 0.250000
v 0.250000 0.187499 0.750000
v 0.708333 0.187498 0.291667
v 0.291667 0.187499 0.708333
v 0.750000 0.128675 0.250000
v 0.250000 0.128676 0.750000
v 0.708333 0.128675 0.291667
v 0.291667 0.128675 0.708333
v 0.750000 0.000000 0.250000
v 0.250000 0.000000 0.750000
v 0.708333 0.000000 0.291667
v 0.291667 0.000000 0.708333
v 0.335861 -0.000000 0.752527
v 0.752527 0.000000 0.335861
v 0.750000 0.000000 0.250000
v 0.250000 0.000000 0.750000
v 0.708333 0.000000 0.291667
v 0.291667 0.000000 0.708333
vt 0.812500 0.812500
vt 0.250000 0.812500
vt 0.250000 0.750000
vt 0.812500 0.750000
vt 0.812500 0.812500
vt 0.812500 0.750000
vt 0.875000 0.750000
vt 0.875000 0.812500
vt 0.187500 0.812500
vt 0.187500 0.750000
vt 0.250000 0.750000
vt 0.250000 0.812500
vt 0.875000 0.624676
vt 0.812500 0.624676
vt 0.187500 0.624675
vt 0.250000 0.624676
vt 0.250000 0.624676
vt 0.812500 0.618431
vt 0.187500 0.750000
vt 0.187500 0.624676
vt 0.875000 0.624676
vt 0.875000 0.750000
vt 0.812176 0.062500
vt 0.812176 0.625000
vt 0.937500 0.625000
vt 0.937500 0.062500
vt 0.250000 0.062500
vt 0.187500 0.062500
vt 0.187500 0.000000
vt 0.250000 0.000000
vt 0.250000 0.687500
vt 0.187500 0.687500
vt 0.187500 0.625000
vt 0.250000 0.625000
vt 0.187500 0.625000
vt 0.187500 0.062500
vt 0.250000 0.062500
vt 0.250000 0.625000
vt 0.375324 0.000000
vt 0.375324 0.062500
vt 0.250000 0.000000
vt 0.375325 0.687500
vt 0.250000 0.687500
vt 0.375324 0.625000
vn -0.0495 0.9980 -0.0400
vn 0.7071 0.0000 0.7071
vn -0.7071 0.0000 0.7071
vn 0.7071 0.0000 -0.7071
vn -0.7071 -0.0000 -0.7071
usemtl Metal
s off
f 7/1/1 8/2/1 9/3/1 10/4/1
f 13/5/2 17/6/2 15/7/2 11/8/2
f 12/9/2 16/10/2 18/11/2 14/12/2
f 14/12/2 18/11/2 17/6/2 13/5/2
f 25/13/2 15/7/2 17/6/2 27/14/2
f 26/15/2 28/16/2 18/11/2 16/10/2
f 9/3/2 23/17/2 24/18/2 10/4/2
f 8/19/3 22/20/3 23/17/3 9/3/3
f 10/4/4 24/18/4 21/21/4 7/22/4
usemtl Spruce_Wood
f 21/23/5 22/24/5 8/25/5 7/26/5
f 3/27/5 1/28/5 5/29/5 7/30/5
f 2/31/5 4/32/5 8/33/5 6/34/5
f 4/35/5 3/36/5 7/37/5 8/38/5
f 19/39/5 21/40/5 7/37/5 5/41/5
f 20/42/5 6/43/5 8/38/5 22/44/5
