# Blender v2.79 (sub 0) OBJ File: 'forge_marker_switch.blend'
# www.blender.org
mtllib marker_switch.mtl
o base.001_Cube.013
v 0.875000 0.062500 0.875000
v 0.125000 0.062500 0.875000
v 0.125000 0.062500 0.125000
v 0.875000 0.062500 0.125000
v 0.875000 0.187500 0.875000
v 0.125000 0.187500 0.875000
v 0.125000 0.187500 0.125000
v 0.875000 0.187500 0.125000
vt 0.500000 0.250000
vt 0.000000 0.125000
vt 0.500000 0.125000
vt 1.000000 0.000000
vt 0.875000 0.500000
vt 0.875000 0.000000
vt 0.000000 0.687500
vt 0.500000 0.812500
vt 0.000000 0.812500
vt 0.437500 0.312500
vt 0.312500 0.812500
vt 0.312500 0.312500
vt 0.000000 0.250000
vt 1.000000 0.500000
vt 0.500000 0.687500
vt 0.437500 0.812500
vt 0.500000 1.000000
vt 0.000000 1.000000
vt 0.500000 0.500000
vn 0.0000 0.0000 1.0000
vn -1.0000 0.0000 -0.0000
vn 0.0000 0.0000 -1.0000
vn 1.0000 0.0000 0.0000
vn 0.0000 1.0000 0.0000
usemtl Stone
s off
f 5/1/1 2/2/1 1/3/1
f 6/4/2 3/5/2 2/6/2
f 7/7/3 4/8/3 3/9/3
f 1/10/4 8/11/4 5/12/4
f 5/1/1 6/13/1 2/2/1
f 6/4/2 7/14/2 3/5/2
f 7/7/3 8/15/3 4/8/3
f 1/10/4 4/16/4 8/11/4
f 7/17/5 6/18/5 8/19/5
o Cube.003_Cube.012
v 1.000000 0.000000 1.000000
v 1.000000 0.062500 1.000000
v 0.000000 0.000000 1.000000
v 0.000000 0.062500 1.000000
v 1.000000 0.000000 0.000000
v 1.000000 0.062500 0.000000
v 0.000000 0.000000 -0.000000
v 0.000000 0.062500 -0.000000
vt 0.937500 0.750000
vt 1.000000 0.000000
vt 1.000000 0.750000
vt 0.812500 0.750000
vt 0.875000 0.000000
vt 0.875000 0.750000
vt 0.750000 0.750000
vt 0.812500 0.000000
vt 0.812500 0.750000
vt 0.937500 0.000000
vt 0.875000 0.750000
vt 0.875000 0.000000
vt 0.000000 1.000000
vt 0.750000 0.250000
vt 0.750000 1.000000
vt 0.750000 0.750000
vt 0.000000 0.000000
vt 0.749999 0.000000
vt 0.937500 0.000000
vt 0.812500 0.000000
vt 0.750000 0.000000
vt 0.000000 0.250000
vt 0.000000 0.750000
vn 0.0000 0.0000 1.0000
vn -1.0000 0.0000 0.0000
vn 0.0000 0.0000 -1.0000
vn 1.0000 0.0000 0.0000
vn 0.0000 -1.0000 0.0000
vn 0.0000 1.0000 0.0000
usemtl Stone
s off
f 10/20/6 11/21/6 9/22/6
f 12/23/7 15/24/7 11/25/7
f 16/26/8 13/27/8 15/28/8
f 14/29/9 9/30/9 13/31/9
f 11/32/10 13/33/10 9/34/10
f 12/35/11 14/36/11 16/37/11
f 10/20/6 12/38/6 11/21/6
f 12/23/7 16/39/7 15/24/7
f 16/26/8 14/40/8 13/27/8
f 14/29/9 10/20/9 9/30/9
f 11/32/10 15/41/10 13/33/10
f 12/35/11 10/42/11 14/36/11
o podium.003_Cube.011
v 0.875000 0.187498 0.875000
v 0.125000 0.187500 0.875000
v 0.875000 0.187498 0.125000
v 0.250000 0.187500 0.750000
v 0.750000 0.187498 0.250000
v 0.875000 0.363969 0.125000
v 0.750000 0.363969 0.250000
v 0.250000 0.363970 0.750000
v 0.375000 0.363970 0.875000
v 0.875000 0.363969 0.375000
v 0.875000 0.363969 0.875000
v 0.125000 0.363971 0.875000
v 0.125000 1.000000 0.875000
v 0.375000 1.000000 0.875000
v 0.250000 1.000000 0.750000
v 0.875000 1.000000 0.375000
v 0.875000 1.000000 0.125000
v 0.750000 1.000000 0.250000
v 0.875000 1.000000 0.875000
vt 0.187500 0.812500
vt 0.875000 1.000000
vt 0.875000 0.812500
vt 0.000000 0.627513
vt 0.187500 0.000000
vt 0.187500 0.627513
vt 0.187550 0.812525
vt 0.874950 0.625050
vt 0.874950 0.812525
vt 0.687547 0.627476
vt 0.875000 0.000000
vt 0.875000 0.627477
vt 0.187500 0.812500
vt 0.000000 1.000000
vt 0.000000 0.812500
vt 0.187500 0.812500
vt 0.000000 1.000000
vt 0.000000 0.812500
vt 0.875000 0.000000
vt 0.187500 0.627512
vt 0.187500 -0.000000
vt 0.375000 0.000000
vt 0.187546 0.627476
vt 0.187546 0.000000
vt 0.000000 0.000000
vt 0.187500 0.627512
vt 0.187500 0.000000
vt 0.187500 1.000000
vt 0.000000 0.000000
vt 0.187550 0.625050
vt 0.687546 0.000000
vt 0.187500 1.000000
vt 0.187500 1.000000
vt 0.875000 0.627511
vt 0.375000 0.627512
vt 0.000000 0.627511
vt 0.312500 0.187500
vt 0.000000 0.187500
vt 0.000000 0.000000
vt 0.250000 0.815011
vt 0.250000 0.187500
vt 0.750000 0.815012
vt 0.500000 0.815012
vt 0.000000 0.187500
vt 0.000000 0.815012
vt 0.750000 0.815012
vt 0.500000 0.187500
vt 0.500000 0.815013
vt 0.750000 0.000000
vt 0.750000 0.187500
vt 0.500000 0.187500
vt 0.750000 0.000000
vt 0.750000 0.187500
vt 0.000000 0.815011
vt 0.500000 0.187500
vt 0.750000 0.187500
vt 0.000000 0.187500
vt 0.000000 0.000000
vn -0.7071 0.0000 -0.7071
vn 0.0000 1.0000 0.0000
vn -0.7071 0.0000 0.7071
vn 0.7071 -0.0000 -0.7071
vn 0.0000 0.0000 1.0000
vn 1.0000 0.0000 0.0000
usemtl Metal
s off
f 20/43/12 23/44/12 21/45/12
f 33/46/12 23/47/12 34/48/12
f 26/49/13 24/50/13 25/51/13
f 34/52/14 26/53/14 32/54/14
f 21/55/12 22/56/12 19/57/12
f 18/58/12 24/59/12 20/60/12
f 25/61/12 32/62/12 26/63/12
f 24/64/15 30/65/15 25/66/15
f 28/67/12 31/68/12 24/69/12
f 20/43/12 24/70/12 23/44/12
f 33/46/12 22/71/12 23/47/12
f 26/49/13 23/72/13 24/50/13
f 34/52/14 23/73/14 26/53/14
f 21/55/12 23/74/12 22/56/12
f 18/58/12 28/75/12 24/59/12
f 25/61/12 30/76/12 32/62/12
f 24/64/15 31/77/15 30/65/15
f 28/67/12 29/78/12 31/68/12
usemtl Spruce_Wood
f 25/79/16 28/80/16 18/81/16
f 30/82/16 28/80/16 25/83/16
f 25/83/16 35/84/16 30/82/16
f 35/85/17 26/86/17 32/87/17
f 32/88/17 22/89/17 33/90/17
f 19/91/17 22/92/17 26/93/17
f 18/81/16 17/94/16 25/79/16
f 17/94/16 27/95/16 25/79/16
f 30/82/16 29/96/16 28/80/16
f 25/83/16 27/95/16 35/84/16
f 35/85/17 27/97/17 26/86/17
f 32/88/17 26/98/17 22/89/17
f 26/93/17 27/99/17 17/100/17
f 17/100/17 19/91/17 26/93/17
