# Blender v2.79 (sub 0) OBJ File: 'forge_marker_switch.blend'
# www.blender.org
mtllib marker_switch.mtl
o Cube.002_Cube.005
v 0.449484 1.545450 0.626261
v 0.405290 1.545450 0.582067
v 0.449484 1.482950 0.626261
v 0.405290 1.482950 0.582067
v 0.626261 1.545450 0.449484
v 0.582067 1.545450 0.405290
v 0.626261 1.482950 0.449484
v 0.582067 1.482950 0.405290
v 0.582067 1.482950 0.493678
v 0.537873 1.482950 0.537873
v 0.493678 1.482950 0.582067
v 0.493678 1.545450 0.582067
v 0.537873 1.545450 0.537873
v 0.582067 1.545450 0.493678
v 0.714649 1.545450 0.626261
v 0.714649 1.482950 0.626261
v 0.758843 1.482950 0.582067
v 0.758843 1.545450 0.582067
v 0.582067 1.545450 0.758843
v 0.582067 1.482950 0.758843
v 0.626261 1.482950 0.714649
v 0.626261 1.545450 0.714649
v 0.626261 1.482950 0.537873
v 0.670455 1.482950 0.582067
v 0.626261 1.545450 0.537873
v 0.670455 1.545450 0.582067
v 0.537873 1.482950 0.626261
v 0.582067 1.482950 0.670455
v 0.537873 1.545450 0.626261
v 0.582067 1.545450 0.670455
vt 0.875000 0.937500
vt 0.937500 0.875000
vt 0.937500 0.937500
vt 0.875000 0.875000
vt 0.875000 0.812500
vt 0.937500 0.750000
vt 0.875000 0.937500
vt 0.937500 0.875000
vt 0.937500 0.937500
vt 0.937500 0.875000
vt 0.937500 0.937500
vt 0.875000 1.000000
vt 0.000000 0.000000
vt 0.000000 0.000000
vt 0.000000 0.000000
vt 0.937500 1.000000
vt 0.875000 0.750000
vt 0.937500 0.750000
vt 0.250000 0.000000
vt 0.312500 0.000000
vt 0.375000 0.062500
vt 0.187500 0.062500
vt 0.375000 0.125000
vt 0.187500 0.125000
vt 0.750000 0.062500
vt 0.687500 0.062500
vt 0.687500 0.000000
vt 0.812500 0.000000
vt 0.875000 0.000000
vt 0.875000 0.062500
vt 0.375000 0.125000
vt 0.187500 0.062500
vt 0.375000 0.062500
vt 0.250000 0.000000
vt 0.312500 0.000000
vt 0.500000 0.000000
vt 0.562500 0.000000
vt 0.500000 0.062500
vt 0.500000 0.000000
vt 0.562500 0.000000
vt 0.562500 0.062500
vt 0.875000 0.875000
vt 0.875000 0.750000
vt 0.937500 1.000000
vt 0.875000 1.000000
vt 0.875000 0.937500
vt 0.875000 0.875000
vt 0.937500 1.000000
vt 0.875000 0.750000
vt 0.937500 0.750000
vt 0.937500 0.812500
vt 0.000000 0.000000
vt 0.000000 0.000000
vt 0.000000 0.000000
vt 0.875000 1.000000
vt 0.375000 0.000000
vt 0.187500 0.062500
vt 0.187500 0.000000
vt 0.375000 0.062500
vt 0.875000 0.000000
vt 0.812500 0.062500
vt 0.875000 0.062500
vt 0.687500 0.062500
vt 0.750000 0.000000
vt 0.687500 0.000000
vt 0.187500 0.125000
vt 0.375000 0.000000
vt 0.187500 0.000000
vt 0.625000 0.000000
vt 0.625000 0.062500
vt 0.562500 0.062500
vt 0.437500 0.062500
vt 0.437500 0.000000
vt 0.625000 0.000000
vt 0.625000 0.062500
vt 0.500000 0.062500
vt 0.437500 0.062500
vt 0.437500 0.000000
vn -0.7071 0.0000 0.7071
vn 0.0000 -1.0000 0.0000
vn 0.7071 0.0000 -0.7071
vn 0.0000 1.0000 0.0000
vn 0.7071 0.0000 0.7071
vn -0.7071 0.0000 -0.7071
usemtl Metal
s off
f 2/1/1 3/2/1 1/3/1
f 10/4/2 11/5/2 4/6/2
f 8/7/3 5/8/3 7/9/3
f 13/10/4 14/11/4 6/12/4
f 13/13/5 11/14/5 10/15/5
f 4/16/6 6/17/6 8/18/6
f 24/19/2 23/20/2 7/21/2
f 5/22/3 17/23/3 7/24/3
f 26/25/4 15/26/4 18/27/4
f 28/28/2 21/29/2 20/30/2
f 3/31/1 19/32/1 1/33/1
f 30/34/4 29/35/4 1/33/4
f 26/36/1 25/37/1 24/38/1
f 28/39/3 27/40/3 29/41/3
f 2/1/1 4/42/1 3/2/1
f 11/5/2 3/43/2 4/6/2
f 4/6/2 8/44/2 10/4/2
f 8/44/2 7/45/2 9/46/2
f 9/46/2 10/4/2 8/44/2
f 8/7/3 6/47/3 5/8/3
f 14/11/4 5/48/4 6/12/4
f 6/12/4 2/49/4 13/10/4
f 2/49/4 1/50/4 12/51/4
f 12/51/4 13/10/4 2/49/4
f 10/15/5 9/52/5 14/53/5
f 13/13/5 12/54/5 11/14/5
f 10/15/5 14/53/5 13/13/5
f 4/16/6 2/55/6 6/17/6
f 23/20/2 9/56/2 7/21/2
f 7/21/2 17/57/2 24/19/2
f 17/57/2 16/58/2 24/19/2
f 5/22/3 18/59/3 17/23/3
f 18/27/4 5/60/4 25/61/4
f 5/60/4 14/62/4 25/61/4
f 25/61/4 26/25/4 18/27/4
f 20/30/2 3/63/2 27/64/2
f 3/63/2 11/65/2 27/64/2
f 27/64/2 28/28/2 20/30/2
f 3/31/1 20/66/1 19/32/1
f 29/35/4 12/67/4 1/33/4
f 1/33/4 19/32/4 30/34/4
f 19/32/4 22/68/4 30/34/4
f 14/69/1 9/70/1 23/71/1
f 24/38/1 16/72/1 15/73/1
f 14/69/1 23/71/1 25/37/1
f 23/71/1 24/38/1 25/37/1
f 15/73/1 26/36/1 24/38/1
f 27/40/3 11/74/3 12/75/3
f 29/41/3 30/76/3 28/39/3
f 30/76/3 22/77/3 28/39/3
f 27/40/3 12/75/3 29/41/3
f 22/77/3 21/78/3 28/39/3
o podium.001_Cube.000
v 0.750000 1.187498 0.250000
v 0.250000 1.187499 0.750000
v 0.708333 1.187498 0.291667
v 0.291667 1.187499 0.708333
v 0.750000 1.128675 0.250000
v 0.250000 1.128676 0.750000
v 0.708333 1.128675 0.291667
v 0.291667 1.128675 0.708333
v 0.335861 1.128675 0.752527
v 0.752527 1.136604 0.335861
v 0.750000 1.187498 0.250000
v 0.250000 1.187499 0.750000
v 0.708333 1.187498 0.291667
v 0.291667 1.187499 0.708333
v 0.750000 1.128675 0.250000
v 0.250000 1.128676 0.750000
v 0.708333 1.128675 0.291667
v 0.291667 1.128675 0.708333
v 0.750000 1.000000 0.250000
v 0.250000 1.000000 0.750000
v 0.708333 1.000000 0.291667
v 0.291667 1.000000 0.708333
v 0.335861 1.000000 0.752527
v 0.752527 1.000000 0.335861
v 0.750000 1.000000 0.250000
v 0.250000 1.000000 0.750000
v 0.708333 1.000000 0.291667
v 0.291667 1.000000 0.708333
vt 0.812500 0.812500
vt 0.250000 0.750000
vt 0.812500 0.750000
vt 0.812500 0.812500
vt 0.875000 0.750000
vt 0.875000 0.812500
vt 0.187500 0.750000
vt 0.250000 0.812500
vt 0.187500 0.812500
vt 0.812500 0.750000
vt 0.812500 0.624676
vt 0.875000 0.624676
vt 0.187500 0.624675
vt 0.250000 0.750000
vt 0.812500 0.618431
vt 0.187500 0.750000
vt 0.250000 0.624676
vt 0.875000 0.750000
vt 0.250000 0.812500
vt 0.250000 0.624676
vt 0.187500 0.624676
vt 0.875000 0.624676
vt 0.812176 0.625000
vt 0.937500 0.062500
vt 0.812176 0.062500
vt 0.250000 0.062500
vt 0.187500 0.000000
vt 0.250000 0.000000
vt 0.187500 0.687500
vt 0.250000 0.625000
vt 0.250000 0.687500
vt 0.187500 0.062500
vt 0.250000 0.625000
vt 0.187500 0.625000
vt 0.375324 0.062500
vt 0.250000 0.000000
vt 0.375324 0.000000
vt 0.375325 0.687500
vt 0.375324 0.625000
vt 0.937500 0.625000
vt 0.187500 0.062500
vt 0.187500 0.625000
vt 0.250000 0.062500
vt 0.250000 0.687500
vn -0.0984 0.9920 -0.0796
vn 0.7071 0.0000 0.7071
vn -0.7071 0.0000 0.7071
vn 0.7071 0.0000 -0.7071
vn -0.0000 1.0000 -0.0000
vn -0.7071 -0.0000 -0.7071
usemtl Metal
s off
f 37/79/7 39/80/7 40/81/7
f 43/82/8 45/83/8 41/84/8
f 46/85/8 44/86/8 42/87/8
f 44/86/8 47/88/8 43/82/8
f 45/83/8 57/89/8 55/90/8
f 56/91/8 48/92/8 46/85/8
f 39/80/8 54/93/8 40/81/8
f 38/94/9 53/95/9 39/80/9
f 54/93/10 37/96/10 40/81/10
f 37/79/11 38/97/11 39/80/11
f 43/82/8 47/88/8 45/83/8
f 46/85/8 48/92/8 44/86/8
f 44/86/8 48/92/8 47/88/8
f 45/83/8 47/88/8 57/89/8
f 56/91/8 58/98/8 48/92/8
f 39/80/8 53/95/8 54/93/8
f 38/94/9 52/99/9 53/95/9
f 54/93/10 51/100/10 37/96/10
usemtl Spruce_Wood
f 52/101/12 37/102/12 51/103/12
f 33/104/12 35/105/12 37/106/12
f 34/107/12 36/108/12 32/109/12
f 33/110/12 38/111/12 34/112/12
f 51/113/12 35/114/12 49/115/12
f 50/116/12 38/111/12 52/117/12
f 52/101/12 38/118/12 37/102/12
f 33/104/12 31/119/12 35/105/12
f 34/107/12 38/120/12 36/108/12
f 33/110/12 37/121/12 38/111/12
f 51/113/12 37/121/12 35/114/12
f 50/116/12 36/122/12 38/111/12
o base.001_Cube.013
v 0.875000 0.062500 0.875000
v 0.125000 0.062500 0.875000
v 0.125000 0.062500 0.125000
v 0.875000 0.062500 0.125000
v 0.875000 0.187500 0.875000
v 0.125000 0.187500 0.875000
v 0.125000 0.187500 0.125000
v 0.875000 0.187500 0.125000
vt 0.500000 0.250000
vt 0.000000 0.125000
vt 0.500000 0.125000
vt 1.000000 0.000000
vt 0.875000 0.500000
vt 0.875000 0.000000
vt 0.000000 0.687500
vt 0.500000 0.812500
vt 0.000000 0.812500
vt 0.437500 0.312500
vt 0.312500 0.812500
vt 0.312500 0.312500
vt 0.000000 0.250000
vt 1.000000 0.500000
vt 0.500000 0.687500
vt 0.437500 0.812500
vt 0.500000 1.000000
vt 0.000000 1.000000
vt 0.500000 0.500000
vn 0.0000 0.0000 1.0000
vn -1.0000 0.0000 -0.0000
vn 0.0000 0.0000 -1.0000
vn 1.0000 0.0000 0.0000
vn 0.0000 1.0000 0.0000
usemtl Stone
s off
f 63/123/13 60/124/13 59/125/13
f 64/126/14 61/127/14 60/128/14
f 65/129/15 62/130/15 61/131/15
f 59/132/16 66/133/16 63/134/16
f 63/123/13 64/135/13 60/124/13
f 64/126/14 65/136/14 61/127/14
f 65/129/15 66/137/15 62/130/15
f 59/132/16 62/138/16 66/133/16
usemtl Stone
f 65/139/17 64/140/17 66/141/17
o Cube.003_Cube.012
v 1.000000 0.000000 1.000000
v 1.000000 0.062500 1.000000
v 0.000000 0.000000 1.000000
v 0.000000 0.062500 1.000000
v 1.000000 0.000000 0.000000
v 1.000000 0.062500 0.000000
v 0.000000 0.000000 -0.000000
v 0.000000 0.062500 -0.000000
vt 0.937500 0.750000
vt 1.000000 0.000000
vt 1.000000 0.750000
vt 0.812500 0.750000
vt 0.875000 0.000000
vt 0.875000 0.750000
vt 0.750000 0.750000
vt 0.812500 0.000000
vt 0.812500 0.750000
vt 0.937500 0.000000
vt 0.875000 0.750000
vt 0.875000 0.000000
vt 0.000000 1.000000
vt 0.750000 0.250000
vt 0.750000 1.000000
vt 0.750000 0.750000
vt 0.000000 0.000000
vt 0.749999 0.000000
vt 0.937500 0.000000
vt 0.812500 0.000000
vt 0.750000 0.000000
vt 0.000000 0.250000
vt 0.000000 0.750000
vn 0.0000 0.0000 1.0000
vn -1.0000 0.0000 0.0000
vn 0.0000 0.0000 -1.0000
vn 1.0000 0.0000 0.0000
vn 0.0000 -1.0000 0.0000
vn 0.0000 1.0000 0.0000
usemtl Stone
s off
f 68/142/18 69/143/18 67/144/18
f 70/145/19 73/146/19 69/147/19
f 74/148/20 71/149/20 73/150/20
f 72/151/21 67/152/21 71/153/21
f 69/154/22 71/155/22 67/156/22
f 70/157/23 72/158/23 74/159/23
f 68/142/18 70/160/18 69/143/18
f 70/145/19 74/161/19 73/146/19
f 74/148/20 72/162/20 71/149/20
f 72/151/21 68/142/21 67/152/21
f 69/154/22 73/163/22 71/155/22
f 70/157/23 68/164/23 72/158/23
o podium.003_Cube.011
v 0.875000 0.187498 0.875000
v 0.125000 0.187500 0.875000
v 0.875000 0.187498 0.125000
v 0.250000 0.187500 0.750000
v 0.750000 0.187498 0.250000
v 0.875000 0.363969 0.125000
v 0.750000 0.363969 0.250000
v 0.250000 0.363970 0.750000
v 0.375000 0.363970 0.875000
v 0.875000 0.363969 0.375000
v 0.875000 0.363969 0.875000
v 0.125000 0.363971 0.875000
v 0.125000 1.000000 0.875000
v 0.375000 1.000000 0.875000
v 0.250000 1.000000 0.750000
v 0.875000 1.000000 0.375000
v 0.875000 1.000000 0.125000
v 0.750000 1.000000 0.250000
v 0.875000 1.000000 0.875000
vt 0.187500 0.812500
vt 0.875000 1.000000
vt 0.875000 0.812500
vt 0.000000 0.627513
vt 0.187500 0.000000
vt 0.187500 0.627513
vt 0.187550 0.812525
vt 0.874950 0.625050
vt 0.874950 0.812525
vt 0.687547 0.627476
vt 0.875000 0.000000
vt 0.875000 0.627477
vt 0.187500 0.812500
vt 0.000000 1.000000
vt 0.000000 0.812500
vt 0.187500 0.812500
vt 0.000000 1.000000
vt 0.000000 0.812500
vt 0.875000 0.000000
vt 0.187500 0.627512
vt 0.187500 -0.000000
vt 0.375000 0.000000
vt 0.187546 0.627476
vt 0.187546 0.000000
vt 0.000000 0.000000
vt 0.187500 0.627512
vt 0.187500 0.000000
vt 0.187500 1.000000
vt 0.000000 0.000000
vt 0.187550 0.625050
vt 0.687546 0.000000
vt 0.187500 1.000000
vt 0.187500 1.000000
vt 0.875000 0.627511
vt 0.375000 0.627512
vt 0.000000 0.627511
vt 0.312500 0.187500
vt 0.000000 0.187500
vt 0.000000 0.000000
vt 0.250000 0.815011
vt 0.250000 0.187500
vt 0.750000 0.815012
vt 0.500000 0.815012
vt 0.000000 0.187500
vt 0.000000 0.815012
vt 0.750000 0.815012
vt 0.500000 0.187500
vt 0.500000 0.815013
vt 0.750000 0.000000
vt 0.750000 0.187500
vt 0.500000 0.187500
vt 0.750000 0.000000
vt 0.750000 0.187500
vt 0.000000 0.815011
vt 0.500000 0.187500
vt 0.750000 0.187500
vt 0.000000 0.187500
vt 0.000000 0.000000
vn -0.7071 0.0000 -0.7071
vn 0.0000 1.0000 0.0000
vn -0.7071 0.0000 0.7071
vn 0.7071 -0.0000 -0.7071
vn 0.0000 0.0000 1.0000
vn 1.0000 0.0000 0.0000
usemtl Metal
s off
f 78/165/24 81/166/24 79/167/24
f 91/168/24 81/169/24 92/170/24
f 84/171/25 82/172/25 83/173/25
f 92/174/26 84/175/26 90/176/26
f 79/177/24 80/178/24 77/179/24
f 76/180/24 82/181/24 78/182/24
f 83/183/24 90/184/24 84/185/24
f 82/186/27 88/187/27 83/188/27
f 86/189/24 89/190/24 82/191/24
f 78/165/24 82/192/24 81/166/24
f 91/168/24 80/193/24 81/169/24
f 84/171/25 81/194/25 82/172/25
f 92/174/26 81/195/26 84/175/26
f 79/177/24 81/196/24 80/178/24
f 76/180/24 86/197/24 82/181/24
f 83/183/24 88/198/24 90/184/24
f 82/186/27 89/199/27 88/187/27
f 86/189/24 87/200/24 89/190/24
usemtl Spruce_Wood
f 83/201/28 86/202/28 76/203/28
f 88/204/28 86/202/28 83/205/28
f 83/205/28 93/206/28 88/204/28
f 93/207/29 84/208/29 90/209/29
f 90/210/29 80/211/29 91/212/29
f 77/213/29 80/214/29 84/215/29
f 76/203/28 75/216/28 83/201/28
f 75/216/28 85/217/28 83/201/28
f 88/204/28 87/218/28 86/202/28
f 83/205/28 85/217/28 93/206/28
f 93/207/29 85/219/29 84/208/29
f 90/210/29 84/220/29 80/211/29
f 84/215/29 85/221/29 75/222/29
f 75/222/29 77/213/29 84/215/29
o Cube.000_Cube.015
v 0.626261 1.482950 0.714649
v 0.626261 1.545450 0.714649
v 0.582067 1.482950 0.670455
v 0.582067 1.545450 0.670455
v 0.714649 1.482950 0.626261
v 0.714649 1.545450 0.626261
v 0.670455 1.482950 0.582067
v 0.670455 1.545450 0.582067
v 0.582067 1.482950 0.758843
v 0.582067 1.545450 0.758843
v 0.537872 1.482950 0.714649
v 0.537872 1.545450 0.714649
v 0.537872 1.482950 0.803038
v 0.537872 1.545450 0.803038
v 0.493678 1.482950 0.758843
v 0.493678 1.545450 0.758843
v 0.803038 1.482950 0.537872
v 0.803038 1.545450 0.537872
v 0.758843 1.482950 0.493678
v 0.758843 1.545450 0.493678
v 0.758843 1.482950 0.582067
v 0.758843 1.545450 0.582067
v 0.714649 1.482950 0.537872
v 0.714649 1.545450 0.537872
vt 0.187500 0.125000
vt 0.250000 0.062500
vt 0.250000 0.125000
vt 0.562500 0.062500
vt 0.437500 0.000000
vt 0.562500 0.000000
vt 0.750000 0.000000
vt 0.687500 0.062500
vt 0.687500 0.000000
vt 0.085228 1.022724
vt -0.914772 0.522724
vt 0.085228 0.522724
vt 0.312500 0.062500
vt 0.187500 0.000000
vt 0.312500 0.000000
vt 0.250000 0.062500
vt 0.187500 0.125000
vt 0.250000 0.125000
vt 0.187500 0.062500
vt 0.250000 0.000000
vt 0.250000 0.062500
vt 0.437500 0.000000
vt 0.500000 0.062500
vt 0.500000 0.000000
vt 0.750000 0.062500
vt 0.687500 0.000000
vt 0.687500 0.062500
vt 0.085228 0.022724
vt 0.585228 -0.477276
vt 0.585228 0.022724
vt 0.437500 0.062500
vt 0.500000 0.000000
vt 0.437500 0.000000
vt 0.687500 0.062500
vt 0.750000 0.000000
vt 0.750000 0.062500
vt 0.187500 0.125000
vt 0.250000 0.062500
vt 0.187500 0.062500
vt 0.187500 0.062500
vt 0.250000 0.000000
vt 0.187500 0.000000
vt -0.414772 0.022724
vt 0.085227 -0.477276
vt 0.085227 0.022724
vt 0.187500 0.062500
vt 0.437500 0.062500
vt 0.750000 0.062500
vt -0.914772 1.022724
vt 0.187500 0.062500
vt 0.187500 0.062500
vt 0.187500 0.000000
vt 0.437500 0.062500
vt 0.750000 0.000000
vt 0.085228 -0.477276
vt 0.500000 0.062500
vt 0.687500 0.000000
vt 0.250000 0.125000
vt 0.250000 0.062500
vt -0.414772 -0.477276
vn -0.7071 0.0000 0.7071
vn -0.7071 0.0000 -0.7071
vn 0.7071 0.0000 -0.7071
vn 0.7071 0.0000 0.7071
vn 0.0000 1.0000 0.0000
usemtl Metal
s off
f 95/223/30 96/224/30 94/225/30
f 96/226/31 101/227/31 100/228/31
f 101/229/32 98/230/32 100/231/32
f 99/232/33 94/233/33 98/234/33
f 97/235/34 99/236/34 101/237/34
f 104/238/32 103/239/32 102/240/32
f 107/241/30 108/242/30 106/243/30
f 109/244/34 103/245/34 105/246/34
f 108/247/31 105/248/31 104/249/31
f 107/250/33 102/251/33 103/252/33
f 112/253/32 111/254/32 110/255/32
f 115/256/30 116/257/30 114/258/30
f 117/259/34 111/260/34 113/261/34
f 116/262/31 113/263/31 112/264/31
f 115/265/33 110/266/33 111/267/33
f 95/223/30 97/268/30 96/224/30
f 96/226/31 97/269/31 101/227/31
f 101/229/32 99/270/32 98/230/32
f 99/232/33 95/271/33 94/233/33
f 97/235/34 95/272/34 99/236/34
f 104/238/32 105/273/32 103/239/32
f 107/241/30 109/274/30 108/242/30
f 109/244/34 107/275/34 103/245/34
f 108/247/31 109/276/31 105/248/31
f 107/250/33 106/277/33 102/251/33
f 112/253/32 113/278/32 111/254/32
f 115/256/30 117/279/30 116/257/30
f 117/259/34 115/280/34 111/260/34
f 116/262/31 117/281/31 113/263/31
f 115/265/33 114/282/33 110/266/33
o podium.000_Cube.014
v 0.875000 1.750000 0.875000
v 0.125000 1.375000 0.875000
v 0.875000 1.375000 0.125000
v 0.875000 1.375000 0.875000
v 0.875000 1.187498 0.125000
v 0.125000 1.187500 0.875000
v 0.875000 1.187500 0.875000
v 0.500000 1.375000 0.500000
v 0.750000 1.187498 0.250000
v 0.250000 1.187500 0.750000
v 0.250000 1.375000 0.750000
v 0.750000 1.375000 0.250000
v 0.875000 1.187499 0.375000
v 0.375000 1.187500 0.875000
v 0.125000 1.000000 0.875000
v 0.375000 1.000000 0.875000
v 0.250000 1.000000 0.750000
v 0.875000 1.000000 0.375000
v 0.875000 1.000000 0.125000
v 0.750000 1.000000 0.250000
v 0.875000 1.000000 0.875000
vt 0.531250 1.000000
vt 0.875000 0.812500
vt 0.187500 0.812500
vt 0.187500 1.000000
vt 0.000000 0.812500
vt 0.000000 1.000000
vt 0.874950 0.187525
vt 0.187550 -0.000000
vt 0.874950 0.000000
vt 0.187546 0.627476
vt 0.375000 0.812500
vt 0.187546 0.812454
vt 0.187500 1.000000
vt 0.000000 0.812500
vt 0.000000 1.000000
vt 0.875000 0.627511
vt 0.187500 0.812500
vt 0.187500 0.627512
vt 0.000000 0.627511
vt 0.187500 0.627512
vt 0.375000 0.000000
vt 0.187500 0.687500
vt 0.687500 0.000000
vt 0.500000 0.000000
vt 0.687500 0.000000
vt 0.000000 0.812500
vt 0.187500 0.627513
vt 0.187500 0.812500
vt 0.687547 0.812453
vt 0.875000 0.627477
vt 0.875000 0.812454
vt 0.875000 1.000000
vt 0.187550 0.187525
vt 0.375000 0.627512
vt 0.187500 0.812500
vt 0.875000 0.812500
vt 0.187500 0.000000
vt 0.000000 0.627513
vt 0.687547 0.627476
vt 0.000000 0.187500
vt 0.250000 0.000000
vt 0.750000 0.187500
vt 0.000000 0.187500
vt 0.000000 0.000000
vt 0.500000 0.000000
vt 0.750000 0.187500
vt 0.000000 0.625000
vt 0.750000 0.625000
vt 0.000000 1.000000
vt 0.500000 0.815012
vt 0.000000 0.815012
vt 0.500000 1.000000
vt 0.750000 0.815012
vt 0.500000 0.815013
vt 0.250000 0.815011
vt 0.750000 1.000000
vt 0.250000 1.000000
vt 0.000000 1.000000
vt 0.000000 0.000000
vt 0.750000 0.000000
vt 0.750000 0.000000
vt 0.500000 1.000000
vt 0.750000 1.000000
vt 0.750000 0.815012
vt 0.000000 0.815011
vn -0.7071 0.0000 -0.7071
vn -0.0000 -1.0000 0.0000
vn 0.7071 0.0000 -0.7071
vn -0.4082 0.8165 -0.4082
vn -0.7071 0.0000 0.7071
vn -0.0000 -0.0000 1.0000
vn 1.0000 0.0000 0.0000
usemtl Metal
s off
f 125/283/35 126/284/35 127/285/35
f 128/286/35 123/287/35 119/288/35
f 127/289/36 130/290/36 131/291/36
f 133/292/37 127/293/37 131/294/37
f 120/295/35 126/296/35 129/297/35
f 133/298/35 130/299/35 135/300/35
f 132/301/35 127/285/35 134/302/35
f 129/303/38 118/304/38 120/305/38
f 118/304/38 128/306/38 119/307/38
f 122/308/35 137/309/35 126/310/35
f 126/311/39 135/312/39 130/313/39
f 127/285/35 128/286/35 125/283/35
f 125/283/35 129/314/35 126/284/35
f 128/286/35 127/285/35 123/287/35
f 127/289/36 126/315/36 130/290/36
f 133/292/37 134/316/37 127/293/37
f 120/295/35 122/317/35 126/296/35
f 133/298/35 131/318/35 130/299/35
f 132/301/35 123/287/35 127/285/35
f 129/303/38 125/319/38 118/304/38
f 118/304/38 125/319/38 128/306/38
f 122/308/35 136/320/35 137/309/35
f 126/311/39 137/321/39 135/312/39
usemtl Spruce_Wood
f 119/322/40 131/323/40 121/324/40
f 121/325/41 124/326/41 130/327/41
f 121/325/41 120/328/41 118/329/41
f 121/324/40 118/330/40 119/322/40
f 130/331/41 138/332/41 135/333/41
f 122/334/41 135/335/41 136/336/41
f 133/337/40 124/338/40 131/339/40
f 123/340/40 133/337/40 131/339/40
f 123/341/40 131/323/40 119/322/40
f 131/323/40 124/342/40 121/324/40
f 122/343/41 120/328/41 130/327/41
f 120/328/41 121/325/41 130/327/41
f 130/331/41 124/344/41 138/332/41
f 122/334/41 130/345/41 135/335/41
f 133/337/40 138/346/40 124/338/40
f 123/340/40 132/347/40 133/337/40
o podium.002_Cube.016
v 0.750000 0.363969 0.250000
v 0.250000 0.363970 0.750000
v 0.708333 0.363969 0.291667
v 0.291667 0.363970 0.708333
v 0.750000 0.422793 0.250000
v 0.250000 0.422794 0.750000
v 0.708333 0.422793 0.291667
v 0.291667 0.422793 0.708333
v 0.335861 0.422793 0.752527
v 0.752527 0.422793 0.335861
v 0.750000 0.363969 0.250000
v 0.250000 0.363970 0.750000
v 0.708333 0.363969 0.291667
v 0.291667 0.363970 0.708333
v 0.750000 0.422793 0.250000
v 0.250000 0.422793 0.750000
v 0.708333 0.422793 0.291667
v 0.291667 0.422793 0.708333
v 0.750000 1.000000 0.250000
v 0.250000 1.000000 0.750000
v 0.708333 1.000000 0.291667
v 0.291667 1.000000 0.708333
v 0.335861 1.000000 0.752527
v 0.752527 1.000000 0.335861
v 0.750000 1.000000 0.250000
v 0.250000 1.000000 0.750000
v 0.708333 1.000000 0.291667
v 0.291667 1.000000 0.708333
vt 0.187500 0.624676
vt 0.250000 0.062500
vt 0.250000 0.624676
vt 0.812500 0.062500
vt 0.875000 0.624676
vt 0.812500 0.618431
vt 0.250000 0.000000
vt 0.812500 0.000000
vt 0.875000 0.062500
vt 0.812500 0.000000
vt 0.875000 0.000000
vt 0.250000 0.062500
vt 0.187500 0.000000
vt 0.250000 0.000000
vt 0.812500 0.062500
vt 0.187500 0.062500
vt 0.250000 0.624676
vt 0.187500 0.624675
vt 0.875000 0.624676
vt 0.187500 0.062500
vt 0.875000 0.062500
vt 0.812500 0.624676
vt 1.000000 0.000000
vt 0.937500 0.062500
vt 0.937500 0.000000
vt 1.000000 0.625000
vt 0.937500 0.687500
vt 0.937500 0.625000
vt 1.000000 0.625000
vt 0.937500 0.062500
vt 1.000000 0.062500
vt 0.250000 0.625000
vt 0.812176 0.062500
vt 0.250000 0.062500
vt 0.937500 0.687500
vt 0.375324 0.625000
vt 0.937500 0.625000
vt 0.375324 0.000000
vt 0.937500 0.000000
vt 1.000000 0.062500
vt 1.000000 0.687500
vt 0.812176 0.625000
vt 0.375325 0.687500
vt 0.375324 0.062500
vn -0.7071 0.0000 0.7071
vn 0.7071 0.0000 -0.7071
vn 0.0000 -1.0000 0.0000
vn 0.7071 0.0000 0.7071
vn -0.7071 0.0000 -0.7071
usemtl Metal
s off
f 160/348/42 147/349/42 161/350/42
f 148/351/43 159/352/43 162/353/43
f 148/351/44 146/354/44 145/355/44
f 161/350/45 148/351/45 162/353/45
f 153/356/45 151/357/45 149/358/45
f 156/359/45 150/360/45 152/361/45
f 155/362/45 152/361/45 151/357/45
f 154/363/45 166/364/45 164/365/45
f 163/366/45 155/362/45 153/356/45
f 160/348/42 146/367/42 147/349/42
f 148/351/43 145/368/43 159/352/43
f 148/351/44 147/349/44 146/354/44
f 161/350/45 147/349/45 148/351/45
f 153/356/45 155/362/45 151/357/45
f 156/359/45 154/363/45 150/360/45
f 155/362/45 156/359/45 152/361/45
f 154/363/45 156/359/45 166/364/45
f 163/366/45 165/369/45 155/362/45
usemtl Spruce_Wood
f 141/370/46 143/371/46 139/372/46
f 140/373/46 146/374/46 142/375/46
f 142/376/46 145/377/46 141/378/46
f 146/379/46 159/380/46 145/381/46
f 144/382/46 160/383/46 146/384/46
f 145/377/46 157/385/46 143/386/46
f 141/370/46 145/387/46 143/371/46
f 140/373/46 144/388/46 146/374/46
f 142/376/46 146/384/46 145/377/46
f 146/379/46 160/389/46 159/380/46
f 144/382/46 158/390/46 160/383/46
f 145/377/46 159/391/46 157/385/46
